#!OML:ASF F:\VICON\USERDATA\INSTALL\Justin_Nancy\Justin_Nancy.ASF
:FULLY-SPECIFIED
:DEGREES
16
root 0.930263 17.8333 -15.3242 6.90669 -5.90492 0.832839
lowerback 3.70672 -1.53612 -3.50164
upperback -0.868815 -2.14313 2.75908
thorax -2.74235 -0.989491 4.95075
lowerneck -14.544 -9.07163 -11.9038
upperneck 16.1268 -11.0491 6.65235
head 8.45298 -5.3561 2.78959
rclavicle 4.57205e-014 1.27222e-014
rhumerus -32.4737 -12.256 -78.4325
rradius 32.7773
rwrist 4.79488
rhand -8.64787 14.2095
rfingers 7.12502
rthumb 17.2854 -15.0418
lclavicle 4.57205e-014 1.27222e-014
lhumerus -31.8745 12.2809 83.2955
lradius 30.8169
lwrist -7.00933
lhand -11.3347 26.1134
lfingers 7.12502
lthumb 14.6981 55.5724
rfemur -12.1399 7.05013 18.8219
rtibia 21.8075
rfoot -11.3492 -9.18722
rtoes 4.48373
lfemur -9.37261 -3.00662 -20.2689
ltibia 18.2736
lfoot -12.045 8.631
ltoes -1.62161
17
root 0.930057 17.8332 -15.3308 6.90277 -5.88084 0.804295
lowerback 3.80341 -1.48271 -3.44642
upperback -0.876493 -2.07177 2.74471
thorax -2.815 -0.952741 4.9044
lowerneck -14.3513 -8.93526 -11.7547
upperneck 16.0826 -10.8973 6.56214
head 8.37497 -5.28908 2.76624
rclavicle -9.74045e-015 1.35174e-014
rhumerus -32.5488 -12.2251 -78.4347
rradius 32.8763
rwrist 4.63355
rhand -8.3976 14.5208
rfingers 7.12502
rthumb 17.5262 -14.7091
lclavicle -9.74045e-015 1.35174e-014
lhumerus -31.7562 12.2179 83.3157
lradius 30.7546
lwrist -6.94632
lhand -11.3675 26.3309
lfingers 7.12502
lthumb 14.6664 55.7922
rfemur -12.1846 7.0331 18.8588
rtibia 21.8844
rfoot -11.3758 -9.18332
rtoes 4.40645
lfemur -9.34787 -3.04747 -20.2171
ltibia 18.1974
lfoot -11.9767 8.59109
ltoes -1.01469
18
root 0.931289 17.8341 -15.3357 6.92898 -5.80259 0.864337
lowerback 3.83677 -1.4624 -3.45152
upperback -0.945197 -2.04627 2.7183
thorax -2.9085 -0.936347 4.88126
lowerneck -13.8278 -8.76436 -11.6716
upperneck 16.0063 -10.7219 6.47389
head 8.23042 -5.22261 2.76904
rclavicle 1.65985e-014 -3.10104e-014
rhumerus -32.7294 -12.1866 -78.3928
rradius 32.9861
rwrist 4.4422
rhand -8.20587 14.6862
rfingers 7.12502
rthumb 17.7107 -14.5272
lclavicle 1.65985e-014 -3.10104e-014
lhumerus -31.8117 12.107 83.3358
lradius 30.7013
lwrist -7.37869
lhand -11.1122 26.2153
lfingers 7.12502
lthumb 14.9124 55.6585
rfemur -12.2358 6.95855 18.7955
rtibia 21.9291
rfoot -11.3844 -9.18321
rtoes 4.26481
lfemur -9.35107 -3.1714 -20.2626
ltibia 18.1358
lfoot -11.892 8.55659
ltoes -0.471056
19
root 0.929444 17.8347 -15.3375 6.9584 -5.75324 0.867744
lowerback 3.80842 -1.43719 -3.4601
upperback -0.955597 -2.01174 2.73886
thorax -2.90609 -0.918649 4.90497
lowerneck -14.1637 -8.55057 -11.5496
upperneck 16.5335 -10.4207 6.36632
head 8.42488 -5.07724 2.74076
rclavicle -1.11319e-014 1.98785e-014
rhumerus -32.7315 -12.2212 -78.3217
rradius 32.9277
rwrist 4.36184
rhand -8.25051 14.4797
rfingers 7.12502
rthumb 17.6678 -14.7376
lclavicle -1.11319e-014 1.98785e-014
lhumerus -31.8536 12.088 83.3963
lradius 30.7516
lwrist -7.77872
lhand -10.7514 26.191
lfingers 7.12502
lthumb 15.26 55.6082
rfemur -12.2852 6.93895 18.8027
rtibia 21.9292
rfoot -11.3121 -9.19817
rtoes 4.60813
lfemur -9.38727 -3.1544 -20.2572
ltibia 18.1194
lfoot -11.8298 8.50513
ltoes 0.0183792
20
root 0.927949 17.8346 -15.3389 6.98137 -5.72359 0.877554
lowerback 3.73847 -1.41792 -3.46515
upperback -0.910583 -1.98463 2.73695
thorax -2.82295 -0.908064 4.90072
lowerneck -15.3123 -8.28588 -11.1964
upperneck 17.6092 -9.99679 6.07349
head 8.91847 -4.86122 2.60195
rclavicle 2.42517e-014 -5.56597e-015
rhumerus -32.552 -12.4207 -78.286
rradius 32.6909
rwrist 4.42225
rhand -8.31178 14.3238
rfingers 7.12502
rthumb 17.6088 -14.8988
lclavicle 2.42517e-014 -5.56597e-015
lhumerus -31.6493 12.1607 83.4203
lradius 30.4654
lwrist -7.77698
lhand -11.2053 25.5031
lfingers 7.12502
lthumb 14.8227 54.953
rfemur -12.3117 6.94183 18.8022
rtibia 21.8946
rfoot -11.1806 -9.24887
rtoes 4.89675
lfemur -9.43351 -3.06531 -20.258
ltibia 18.1615
lfoot -11.9489 8.39395
ltoes 0.714075
21
root 0.927173 17.8329 -15.3424 6.98327 -5.65802 0.81226
lowerback 3.707 -1.37886 -3.37362
upperback -0.815665 -1.92744 2.73545
thorax -2.71611 -0.885546 4.84071
lowerneck -16.0377 -8.05116 -10.9176
upperneck 18.137 -9.65341 5.93793
head 9.17575 -4.68125 2.53673
rclavicle 5.36719e-015 -3.18055e-015
rhumerus -32.3882 -12.6579 -78.2572
rradius 32.585
rwrist 4.46602
rhand -8.42318 14.3891
rfingers 7.12502
rthumb 17.5016 -14.843
lclavicle 5.36719e-015 -3.18055e-015
lhumerus -31.1919 12.095 83.4903
lradius 30.0042
lwrist -7.57847
lhand -11.4655 25.5374
lfingers 7.12502
lthumb 14.572 55.0055
rfemur -12.3017 6.89248 18.8897
rtibia 21.8381
rfoot -11.0723 -9.2757
rtoes 4.62294
lfemur -9.43677 -3.18842 -20.1551
ltibia 18.2441
lfoot -12.1128 8.38156
ltoes 0.905852
22
root 0.925955 17.8327 -15.3472 7.03402 -5.63449 0.717208
lowerback 3.7235 -1.31502 -3.25606
upperback -0.809419 -1.83616 2.76262
thorax -2.73142 -0.841355 4.79789
lowerneck -16.186 -7.85217 -10.9777
upperneck 18.3639 -9.37914 6.04087
head 9.26462 -4.54457 2.61713
rclavicle -2.78299e-015 0
rhumerus -32.4241 -12.7855 -78.1542
rradius 32.6106
rwrist 4.47616
rhand -8.3059 14.536
rfingers 7.12502
rthumb 17.6145 -14.6861
lclavicle -2.78299e-015 0
lhumerus -31.1469 11.9858 83.5836
lradius 30.1496
lwrist -7.72347
lhand -10.7769 26.5078
lfingers 7.12502
lthumb 15.2354 55.9268
rfemur -12.3417 6.97311 18.9921
rtibia 21.787
rfoot -11.0139 -9.29971
rtoes 4.77493
lfemur -9.54542 -3.16934 -20.034
ltibia 18.3063
lfoot -12.1321 8.36453
ltoes 0.254445
23
root 0.9251 17.8328 -15.3501 7.04995 -5.61393 0.656036
lowerback 3.73116 -1.26061 -3.16324
upperback -0.814282 -1.75874 2.77694
thorax -2.75119 -0.803487 4.75633
lowerneck -16.276 -7.70529 -10.9667
upperneck 18.5546 -9.17665 6.03882
head 9.32777 -4.44866 2.64189
rclavicle -1.68967e-015 1.59028e-015
rhumerus -32.4333 -13.0209 -78.0232
rradius 32.5036
rwrist 4.64233
rhand -8.17722 14.8382
rfingers 7.12502
rthumb 17.7383 -14.3728
lclavicle -1.68967e-015 1.59028e-015
lhumerus -31.2737 11.8756 83.6561
lradius 30.3902
lwrist -7.98529
lhand -10.0738 27.0968
lfingers 7.12502
lthumb 15.9126 56.4631
rfemur -12.3092 7.00626 19.0605
rtibia 21.7034
rfoot -11.0398 -9.32991
rtoes 4.86954
lfemur -9.67047 -3.14777 -19.9619
ltibia 18.3919
lfoot -12.1062 8.36611
ltoes -0.427989
